v 1.000000 -1.000000 -1.000000
v 1.000000 -1.000000 1.000000
v -1.000000 -1.000000 1.000000
v -1.000000 -1.000000 -1.000000
v 1.000000 1.000000 -0.999999
v 0.999999 1.000000 1.000001
v -1.000000 1.000000 1.000000
v -1.000000 1.000000 -1.000000
vt 0.0000 -0.0107
vt 1.0000 1.0000
vt 0.0000 1.0000
vt 1.0000 0.0000
vt 0.0000 1.0000
vt 0.0000 0.0000
vt -0.0027 0.9956
vt 0.9920 0.0009
vt 0.0036 0.0071
vt -0.0028 0.9963
vt 0.9957 0.0001
vt 0.0008 0.0037
vt 0.0000 0.0000
vt 0.9893 0.9964
vt 0.9929 -0.0000
vt 0.9893 -0.0036
vt 0.0000 0.9929
vt 0.9956 0.9991
vt 1.0000 0.0000
vt 1.0000 1.0000
vt 0.9893 0.9929
vt 0.9957 0.9963
vt -0.0036 0.9964
vt 0.0009 -0.0062
vn 0.0000 -1.0000 0.0000
vn 0.0000 1.0000 0.0000
vn 1.0000 -0.0000 0.0000
vn -0.0000 -0.0000 1.0000
vn -1.0000 -0.0000 -0.0000
vn 0.0000 0.0000 -1.0000
f 1/1/1 3/2/1 4/3/1
f 8/4/2 6/5/2 5/6/2
f 5/7/3 2/8/3 1/9/3
f 6/10/4 3/11/4 2/12/4
f 3/13/5 8/14/5 4/15/5
f 1/16/6 8/17/6 5/18/6
f 1/1/1 2/19/1 3/2/1
f 8/4/2 7/20/2 6/5/2
f 5/7/3 6/21/3 2/8/3
f 6/10/4 7/22/4 3/11/4
f 3/13/5 7/23/5 8/14/5
f 1/16/6 4/24/6 8/17/6